<svg id="SvgjsSvg1152" width="288" height="288" xmlns="http://www.w3.org/2000/svg" version="1.1" xmlns:xlink="http://www.w3.org/1999/xlink" xmlns:svgjs="http://svgjs.com/svgjs"><defs id="SvgjsDefs1153"></defs><g id="SvgjsG1154"><svg xmlns="http://www.w3.org/2000/svg" viewBox="0 0 24 24" width="288" height="288"><path d="M12 5.25c-.41 0-.75.34-.75.75v12c0 .41.34.75.75.75s.75-.34.75-.75V6c0-.41-.34-.75-.75-.75zM9 7.25c-.41 0-.75.34-.75.75v8c0 .41.34.75.75.75s.75-.34.75-.75V8c0-.41-.34-.75-.75-.75zM6 9.25c-.41 0-.75.34-.75.75v4c0 .41.34.75.75.75s.75-.34.75-.75v-4c0-.41-.34-.75-.75-.75zM15 8.25c-.41 0-.75.34-.75.75v6c0 .41.34.75.75.75s.75-.34.75-.75v-6c0-.41-.34-.75-.75-.75zM18 6.25c-.41 0-.75.34-.75.75v10c0 .41.34.75.75.75s.75-.34.75-.75V7c0-.41-.34-.75-.75-.75zM21.02 11.25h0c-.41 0-.75.34-.75.75s.34.75.75.75.75-.34.75-.75-.33-.75-.75-.75zM3.02 11.25h0c-.41 0-.75.34-.75.75s.34.75.75.75.75-.34.75-.75-.33-.75-.75-.75z" fill="#874d9d" class="color000 svgShape"></path></svg></g></svg>